<?xml version="1.0" encoding="utf-8"?>
<!-- Generator: Adobe Illustrator 18.0.0, SVG Export Plug-In . SVG Version: 6.00 Build 0)  -->
<!DOCTYPE svg PUBLIC "-//W3C//DTD SVG 1.1//EN" "http://www.w3.org/Graphics/SVG/1.1/DTD/svg11.dtd">
<svg version="1.1" id="Capa_1" xmlns="http://www.w3.org/2000/svg" xmlns:xlink="http://www.w3.org/1999/xlink" x="0px" y="0px"
	 viewBox="0 0 792 612" enable-background="new 0 0 792 612" xml:space="preserve">
<path fill="#FFFFFF" d="M579.6,275.4H212.4c-17.2,0-30.6,13.4-30.6,30.6c0,17.2,13.4,30.6,30.6,30.6h367.2
	c17.2,0,30.6-13.4,30.6-30.6S596.8,275.4,579.6,275.4z M212.4,214.2h367.2c17.2,0,30.6-13.4,30.6-30.6S596.8,153,579.6,153H212.4
	c-17.2,0-30.6,13.4-30.6,30.6S195.2,214.2,212.4,214.2z M579.6,397.8H212.4c-17.2,0-30.6,13.4-30.6,30.6s13.4,30.6,30.6,30.6h367.2
	c17.2,0,30.6-13.4,30.6-30.6S596.8,397.8,579.6,397.8z"/>
</svg>
